<mxfile host="Electron" agent="Mozilla/5.0 (Windows NT 10.0; Win64; x64) AppleWebKit/537.36 (KHTML, like Gecko) draw.io/24.7.17 Chrome/128.0.6613.36 Electron/32.0.1 Safari/537.36" version="24.7.17">
  <diagram name="Page-1" id="OsaxYC_9Uq7TPTA77CcP">
    <mxGraphModel dx="1221" dy="823" grid="1" gridSize="10" guides="1" tooltips="1" connect="1" arrows="1" fold="1" page="1" pageScale="1" pageWidth="827" pageHeight="1169" math="0" shadow="0">
      <root>
        <mxCell id="0" />
        <mxCell id="1" parent="0" />
        <mxCell id="v9RG3lK1gvK6WCx2J8t8-20" value="" style="edgeStyle=orthogonalEdgeStyle;rounded=0;orthogonalLoop=1;jettySize=auto;html=1;" edge="1" parent="1" source="v9RG3lK1gvK6WCx2J8t8-2" target="v9RG3lK1gvK6WCx2J8t8-19">
          <mxGeometry relative="1" as="geometry" />
        </mxCell>
        <mxCell id="v9RG3lK1gvK6WCx2J8t8-2" value="&lt;font style=&quot;font-size: 14px;&quot;&gt;程序开始&lt;/font&gt;" style="ellipse;whiteSpace=wrap;html=1;" vertex="1" parent="1">
          <mxGeometry x="340" y="80" width="120" height="40" as="geometry" />
        </mxCell>
        <mxCell id="v9RG3lK1gvK6WCx2J8t8-3" style="edgeStyle=orthogonalEdgeStyle;rounded=0;orthogonalLoop=1;jettySize=auto;html=1;exitX=0.5;exitY=1;exitDx=0;exitDy=0;entryX=0.5;entryY=0;entryDx=0;entryDy=0;" edge="1" parent="1" source="v9RG3lK1gvK6WCx2J8t8-4" target="v9RG3lK1gvK6WCx2J8t8-8">
          <mxGeometry relative="1" as="geometry" />
        </mxCell>
        <mxCell id="v9RG3lK1gvK6WCx2J8t8-4" value="&lt;font style=&quot;font-size: 14px;&quot;&gt;输入字符curr&lt;/font&gt;" style="shape=parallelogram;perimeter=parallelogramPerimeter;whiteSpace=wrap;html=1;fixedSize=1;" vertex="1" parent="1">
          <mxGeometry x="340" y="240" width="120" height="40" as="geometry" />
        </mxCell>
        <mxCell id="v9RG3lK1gvK6WCx2J8t8-5" style="edgeStyle=orthogonalEdgeStyle;rounded=0;orthogonalLoop=1;jettySize=auto;html=1;" edge="1" parent="1" source="v9RG3lK1gvK6WCx2J8t8-8">
          <mxGeometry relative="1" as="geometry">
            <mxPoint x="400" y="220" as="targetPoint" />
            <Array as="points">
              <mxPoint x="521" y="340" />
            </Array>
          </mxGeometry>
        </mxCell>
        <mxCell id="v9RG3lK1gvK6WCx2J8t8-6" value="&lt;font style=&quot;font-size: 14px;&quot;&gt;是&lt;/font&gt;" style="edgeLabel;html=1;align=center;verticalAlign=middle;resizable=0;points=[];fontFamily=Helvetica;fontSize=11;fontColor=default;labelBackgroundColor=default;fillColor=none;gradientColor=none;" vertex="1" connectable="0" parent="v9RG3lK1gvK6WCx2J8t8-5">
          <mxGeometry x="-0.1778" y="3" relative="1" as="geometry">
            <mxPoint x="-28" y="53" as="offset" />
          </mxGeometry>
        </mxCell>
        <mxCell id="v9RG3lK1gvK6WCx2J8t8-7" style="edgeStyle=orthogonalEdgeStyle;rounded=0;orthogonalLoop=1;jettySize=auto;html=1;exitX=0.5;exitY=1;exitDx=0;exitDy=0;entryX=0.5;entryY=0;entryDx=0;entryDy=0;fontFamily=Helvetica;fontSize=11;fontColor=default;labelBackgroundColor=default;resizable=0;" edge="1" parent="1" source="v9RG3lK1gvK6WCx2J8t8-8" target="v9RG3lK1gvK6WCx2J8t8-23">
          <mxGeometry relative="1" as="geometry">
            <mxPoint x="400" y="400" as="targetPoint" />
          </mxGeometry>
        </mxCell>
        <mxCell id="v9RG3lK1gvK6WCx2J8t8-22" value="&lt;font style=&quot;font-size: 14px;&quot;&gt;否&lt;/font&gt;" style="edgeLabel;html=1;align=center;verticalAlign=middle;resizable=0;points=[];" vertex="1" connectable="0" parent="v9RG3lK1gvK6WCx2J8t8-7">
          <mxGeometry x="-0.0667" y="3" relative="1" as="geometry">
            <mxPoint x="11" y="-4" as="offset" />
          </mxGeometry>
        </mxCell>
        <mxCell id="v9RG3lK1gvK6WCx2J8t8-8" value="&lt;font style=&quot;font-size: 14px;&quot;&gt;curr == prev&lt;/font&gt;&lt;div&gt;&lt;font style=&quot;font-size: 14px;&quot;&gt;且 curr == &#39; &#39;&lt;/font&gt;&lt;/div&gt;" style="rhombus;whiteSpace=wrap;html=1;" vertex="1" parent="1">
          <mxGeometry x="340" y="310" width="120" height="60" as="geometry" />
        </mxCell>
        <mxCell id="v9RG3lK1gvK6WCx2J8t8-21" value="" style="edgeStyle=orthogonalEdgeStyle;rounded=0;orthogonalLoop=1;jettySize=auto;html=1;" edge="1" parent="1" source="v9RG3lK1gvK6WCx2J8t8-19" target="v9RG3lK1gvK6WCx2J8t8-4">
          <mxGeometry relative="1" as="geometry" />
        </mxCell>
        <mxCell id="v9RG3lK1gvK6WCx2J8t8-19" value="&lt;font style=&quot;font-size: 14px;&quot;&gt;初始化变量&lt;br&gt;prev = &#39;\0&#39;&lt;/font&gt;" style="rounded=0;whiteSpace=wrap;html=1;" vertex="1" parent="1">
          <mxGeometry x="340" y="160" width="120" height="40" as="geometry" />
        </mxCell>
        <mxCell id="v9RG3lK1gvK6WCx2J8t8-26" value="" style="edgeStyle=orthogonalEdgeStyle;rounded=0;orthogonalLoop=1;jettySize=auto;html=1;" edge="1" parent="1" source="v9RG3lK1gvK6WCx2J8t8-23" target="v9RG3lK1gvK6WCx2J8t8-25">
          <mxGeometry relative="1" as="geometry" />
        </mxCell>
        <mxCell id="v9RG3lK1gvK6WCx2J8t8-23" value="&lt;font style=&quot;font-size: 14px;&quot;&gt;输出curr&lt;/font&gt;" style="shape=parallelogram;perimeter=parallelogramPerimeter;whiteSpace=wrap;html=1;fixedSize=1;" vertex="1" parent="1">
          <mxGeometry x="340" y="400" width="120" height="40" as="geometry" />
        </mxCell>
        <mxCell id="v9RG3lK1gvK6WCx2J8t8-29" value="" style="edgeStyle=orthogonalEdgeStyle;rounded=0;orthogonalLoop=1;jettySize=auto;html=1;" edge="1" parent="1" source="v9RG3lK1gvK6WCx2J8t8-25" target="v9RG3lK1gvK6WCx2J8t8-28">
          <mxGeometry relative="1" as="geometry" />
        </mxCell>
        <mxCell id="v9RG3lK1gvK6WCx2J8t8-30" value="&lt;font style=&quot;font-size: 14px;&quot;&gt;是&lt;/font&gt;" style="edgeLabel;html=1;align=center;verticalAlign=middle;resizable=0;points=[];" vertex="1" connectable="0" parent="v9RG3lK1gvK6WCx2J8t8-29">
          <mxGeometry x="-0.0667" y="3" relative="1" as="geometry">
            <mxPoint x="11" as="offset" />
          </mxGeometry>
        </mxCell>
        <mxCell id="v9RG3lK1gvK6WCx2J8t8-32" style="edgeStyle=orthogonalEdgeStyle;rounded=0;orthogonalLoop=1;jettySize=auto;html=1;exitX=0;exitY=0.5;exitDx=0;exitDy=0;" edge="1" parent="1" source="v9RG3lK1gvK6WCx2J8t8-25">
          <mxGeometry relative="1" as="geometry">
            <mxPoint x="400" y="220" as="targetPoint" />
            <Array as="points">
              <mxPoint x="280" y="500" />
              <mxPoint x="280" y="220" />
            </Array>
          </mxGeometry>
        </mxCell>
        <mxCell id="v9RG3lK1gvK6WCx2J8t8-33" value="&lt;font style=&quot;font-size: 14px;&quot;&gt;否&lt;/font&gt;" style="edgeLabel;html=1;align=center;verticalAlign=middle;resizable=0;points=[];" vertex="1" connectable="0" parent="v9RG3lK1gvK6WCx2J8t8-32">
          <mxGeometry x="-0.8207" y="3" relative="1" as="geometry">
            <mxPoint x="10" y="-13" as="offset" />
          </mxGeometry>
        </mxCell>
        <mxCell id="v9RG3lK1gvK6WCx2J8t8-25" value="&lt;font style=&quot;font-size: 14px;&quot;&gt;curr == &#39;!&#39;&lt;/font&gt;" style="rhombus;whiteSpace=wrap;html=1;" vertex="1" parent="1">
          <mxGeometry x="350" y="480" width="100" height="40" as="geometry" />
        </mxCell>
        <mxCell id="v9RG3lK1gvK6WCx2J8t8-28" value="&lt;font style=&quot;font-size: 14px;&quot;&gt;程序结束&lt;/font&gt;" style="ellipse;whiteSpace=wrap;html=1;" vertex="1" parent="1">
          <mxGeometry x="340" y="560" width="120" height="40" as="geometry" />
        </mxCell>
      </root>
    </mxGraphModel>
  </diagram>
</mxfile>
